#!OML:ASF F:\VICON\USERDATA\INSTALL\rory3\rory3.ASF
:FULLY-SPECIFIED
:DEGREES
552
root -16.7828 17.736 12.1837 32.8878 -89.1905 -33.4102
lowerback 9.13403 3.97519 0.884696
upperback 0.0795043 5.33658 -0.611976
thorax -4.88602 2.60113 -1.82832
lowerneck -23.4914 -2.50778 -8.5179
upperneck 29.0228 -2.80007 6.63823
head 14.0636 -1.33588 3.58675
rclavicle -1.07033e-014 6.16232e-015
rhumerus -24.9194 -11.9499 -82.3889
rradius 32.2776
rwrist 5.59682
rhand -16.0766 11.5079
rfingers 7.12502
rthumb 10.1263 -18.2284
lclavicle -1.07033e-014 6.16232e-015
lhumerus -36.927 8.5633 81.3648
lradius 27.6522
lwrist -9.73369
lhand -15.1811 25.4907
lfingers 7.12502
lthumb 10.9901 55.183
rfemur 7.89495 0.721598 25.2089
rtibia 27.2881
rfoot -14.8711 -7.94126
rtoes -8.34794
lfemur -17.3062 1.82946 -21.8778
ltibia 16.7742
lfoot 3.8829 -2.18612
ltoes -5.43901
553
root -16.8968 17.7551 12.2023 13.793 -89.1386 -14.4419
lowerback 9.16867 3.92246 0.704215
upperback 0.0824999 5.24205 -0.704103
thorax -4.91285 2.55697 -1.81449
lowerneck -23.5071 -2.36347 -8.49474
upperneck 29.0982 -2.60302 6.64342
head 14.0789 -1.2494 3.62448
rclavicle -4.20554e-014 5.86415e-015
rhumerus -25.0776 -12.8734 -82.5287
rradius 32.0185
rwrist 6.01838
rhand -15.9842 11.1646
rfingers 7.12502
rthumb 10.2154 -18.5673
lclavicle -4.20554e-014 5.86415e-015
lhumerus -36.918 9.09931 81.0202
lradius 27.4062
lwrist -9.92736
lhand -16.1755 25.8162
lfingers 7.12502
lthumb 10.0309 55.5572
rfemur 7.40675 0.475337 24.7748
rtibia 29.0649
rfoot -14.1408 -7.35691
rtoes -8.07537
lfemur -16.5401 1.92783 -22.1865
ltibia 16.4638
lfoot 3.60559 -2.34396
ltoes -4.40949
554
root -17.0118 17.7744 12.2231 0.251738 -89.0338 -1.09098
lowerback 9.2246 3.83142 0.613783
upperback 0.112875 5.10461 -0.810179
thorax -4.91478 2.48957 -1.85944
lowerneck -23.3686 -2.11909 -8.57247
upperneck 29.0502 -2.29191 6.84004
head 13.9999 -1.09788 3.77406
rclavicle -2.52581e-014 -5.76476e-015
rhumerus -25.3436 -13.2788 -82.7761
rradius 31.9081
rwrist 6.03792
rhand -15.7951 10.8909
rfingers 7.12502
rthumb 10.3978 -18.832
lclavicle -2.52581e-014 -5.76476e-015
lhumerus -36.9189 9.58425 80.6586
lradius 27.1963
lwrist -9.94236
lhand -17.2799 26.0741
lfingers 7.12502
lthumb 8.96522 55.8636
rfemur 6.89965 -0.0147498 24.2757
rtibia 30.9573
rfoot -13.2546 -6.64653
rtoes -8.14515
lfemur -15.6534 2.23243 -22.4921
ltibia 15.999
lfoot 3.36912 -2.81044
ltoes -2.46737
555
root -17.1256 17.7933 12.2464 -5.61739 -88.89 4.57417
lowerback 9.27448 3.75473 0.680989
upperback 0.161269 5.00359 -0.904047
thorax -4.88099 2.43724 -1.98216
lowerneck -23.1865 -1.9145 -8.64933
upperneck 28.8818 -2.04091 7.05467
head 13.8653 -0.966374 3.9138
rclavicle 4.21548e-014 -4.17448e-015
rhumerus -25.5872 -13.5603 -82.9833
rradius 31.7455
rwrist 5.96679
rhand -15.5979 11.0206
rfingers 7.12502
rthumb 10.588 -18.6926
lclavicle 4.21548e-014 -4.17448e-015
lhumerus -36.8712 9.71505 80.4702
lradius 27.0207
lwrist -9.79879
lhand -17.1403 26.1583
lfingers 7.12502
lthumb 9.09992 55.942
rfemur 6.33839 -0.427039 23.8822
rtibia 32.9334
rfoot -12.0878 -6.01706
rtoes -7.6793
lfemur -14.7157 2.27959 -22.687
ltibia 15.4569
lfoot 3.14403 -3.0416
ltoes -1.73606
556
root -17.2378 17.8126 12.2683 -7.04699 -88.7475 5.869
lowerback 9.25744 3.7273 0.75526
upperback 0.225474 4.97352 -0.913745
thorax -4.79809 2.42183 -2.02495
lowerneck -23.2315 -1.82483 -8.67383
upperneck 28.8686 -1.84375 6.91647
head 13.8477 -0.901085 3.89749
rclavicle -6.40708e-014 6.95746e-015
rhumerus -25.7572 -14.1106 -82.9841
rradius 31.5279
rwrist 6.09098
rhand -15.5194 11.2116
rfingers 7.12502
rthumb 10.6638 -18.4977
lclavicle -6.40708e-014 6.95746e-015
lhumerus -36.6802 9.69374 80.505
lradius 26.8117
lwrist -9.61595
lhand -16.8885 26.2686
lfingers 7.12502
lthumb 9.34296 56.0415
rfemur 5.6337 -0.754477 23.5768
rtibia 34.9484
rfoot -10.7946 -5.32108
rtoes -6.91507
lfemur -13.8706 2.19256 -22.7814
ltibia 14.9258
lfoot 2.97151 -3.16248
ltoes -1.89135
557
root -17.3502 17.831 12.2895 -8.49538 -88.6222 7.15852
lowerback 9.28587 3.70993 0.755732
upperback 0.287337 4.95185 -0.868299
thorax -4.75409 2.41214 -1.97457
lowerneck -23.1801 -1.77713 -9.21211
upperneck 28.7771 -1.70516 7.35764
head 13.7925 -0.837574 4.19282
rclavicle 2.89232e-014 -1.13307e-014
rhumerus -26.0162 -14.4081 -82.9376
rradius 31.4577
rwrist 5.97027
rhand -15.3669 11.1644
rfingers 7.12502
rthumb 10.8109 -18.5373
lclavicle 2.89232e-014 -1.13307e-014
lhumerus -36.4543 9.7971 80.5697
lradius 26.5162
lwrist -9.6224
lhand -16.7256 26.328
lfingers 7.12502
lthumb 9.50013 56.0939
rfemur 4.88112 -1.26824 23.1829
rtibia 37.0095
rfoot -9.42906 -4.35843
rtoes -5.83061
lfemur -12.9942 2.1981 -22.8764
ltibia 14.3651
lfoot 2.83152 -3.36136
ltoes -1.02001
558
root -17.4647 17.8476 12.3129 -9.87889 -88.4358 8.37348
lowerback 9.29787 3.65136 0.859532
upperback 0.345295 4.88195 -0.906331
thorax -4.69059 2.37582 -2.0606
lowerneck -23.3164 -1.7077 -9.35063
upperneck 28.8616 -1.53942 7.36867
head 13.8407 -0.779466 4.2568
rclavicle 3.52967e-014 -1.33186e-014
rhumerus -26.2987 -14.3852 -83.0896
rradius 31.4243
rwrist 5.64633
rhand -15.3007 11.1141
rfingers 7.12502
rthumb 10.8748 -18.5843
lclavicle 3.52967e-014 -1.33186e-014
lhumerus -36.2814 9.77469 80.5695
lradius 26.3482
lwrist -9.68438
lhand -16.5831 26.5158
lfingers 7.12502
lthumb 9.63764 56.2753
rfemur 4.08842 -1.95712 22.7225
rtibia 39.0954
rfoot -7.71557 -3.42543
rtoes -5.41736
lfemur -12.0788 2.43897 -23.0373
ltibia 13.7404
lfoot 2.62107 -3.88832
ltoes -1.08981
559
root -17.5758 17.8626 12.3358 -13.8411 -88.1802 12.2192
lowerback 9.28123 3.61342 0.88019
upperback 0.376169 4.82832 -0.995937
thorax -4.64148 2.34867 -2.15525
lowerneck -23.5585 -1.63134 -9.07764
upperneck 29.0789 -1.36132 6.89786
head 13.961 -0.740015 4.06031
rclavicle 5.92875e-014 -1.13307e-014
rhumerus -26.5994 -14.4545 -83.2382
rradius 31.3431
rwrist 5.53697
rhand -15.2311 11.2821
rfingers 7.12502
rthumb 10.9418 -18.4127
lclavicle 5.92875e-014 -1.13307e-014
lhumerus -36.1667 9.6027 80.6121
lradius 26.3593
lwrist -9.84029
lhand -16.6185 26.5813
lfingers 7.12502
lthumb 9.60347 56.3424
rfemur 3.18693 -2.53882 22.1807
rtibia 41.1897
rfoot -5.74866 -2.62439
rtoes -3.91708
lfemur -11.2324 2.89958 -23.3341
ltibia 13.0901
lfoot 2.38068 -4.71367
ltoes -2.21576
560
root -17.6842 17.8784 12.3562 -20.0931 -87.9495 18.3528
lowerback 9.28216 3.58342 0.621901
upperback 0.405146 4.75868 -1.02469
thorax -4.63306 2.31924 -2.03174
lowerneck -23.6226 -1.49405 -9.06464
upperneck 29.105 -1.12872 6.81342
head 13.9604 -0.649188 4.06774
rclavicle -2.68297e-014 -2.78299e-015
rhumerus -26.8948 -14.5189 -83.2401
rradius 31.278
rwrist 5.82881
rhand -14.6336 11.3888
rfingers 7.12502
rthumb 11.5181 -18.2747
lclavicle -2.68297e-014 -2.78299e-015
lhumerus -36.0806 9.36738 80.7829
lradius 26.4161
lwrist -9.94497
lhand -16.8168 26.4073
lfingers 7.12502
lthumb 9.41209 56.1771
rfemur 2.23924 -3.05891 21.4985
rtibia 43.2727
rfoot -3.65786 -1.72217
rtoes -0.794005
lfemur -10.4152 3.23264 -23.7031
ltibia 12.5172
lfoot 2.1615 -5.27706
ltoes -2.58653
561
root -17.7927 17.8916 12.3751 -26.1166 -87.6338 24.2972
lowerback 9.20144 3.50583 0.222024
upperback 0.449426 4.61248 -1.02869
thorax -4.57816 2.25573 -1.78777
lowerneck -23.7138 -1.32399 -8.98333
upperneck 29.0886 -0.820246 6.58453
head 13.939 -0.536325 4.01641
rclavicle -2.90971e-014 -3.27995e-015
rhumerus -27.2503 -14.2562 -83.2474
rradius 31.4849
rwrist 6.16477
rhand -14.1146 11.2024
rfingers 7.12502
rthumb 12.0186 -18.4326
lclavicle -2.90971e-014 -3.27995e-015
lhumerus -35.9536 9.30117 80.9518
lradius 26.4918
lwrist -10.115
lhand -16.6844 26.189
lfingers 7.12502
lthumb 9.53983 55.953
rfemur 1.21724 -3.80567 20.6872
rtibia 45.3234
rfoot -1.63029 -0.590967
rtoes 0.713515
lfemur -9.62947 3.24047 -24.1312
ltibia 11.9339
lfoot 1.97502 -5.42986
ltoes -3.22774
562
root -17.9003 17.8954 12.3941 -29.6031 -87.2723 27.6851
lowerback 9.15646 3.44854 -0.0853249
upperback 0.477141 4.50208 -1.0619
thorax -4.5483 2.20712 -1.63322
lowerneck -23.7233 -1.2025 -8.91441
upperneck 29.0343 -0.596998 6.3884
head 13.8943 -0.457164 3.96255
rclavicle 1.77043e-015 5.76476e-015
rhumerus -27.551 -13.7781 -83.3708
rradius 31.5858
rwrist 5.9725
rhand -14.0582 11.1292
rfingers 7.12502
rthumb 12.0729 -18.5025
lclavicle 1.77043e-015 5.76476e-015
lhumerus -35.8555 8.91964 81.2125
lradius 26.7542
lwrist -9.93151
lhand -16.3902 26.0906
lfingers 7.12502
lthumb 9.8237 55.8414
rfemur 0.242078 -4.5505 19.9263
rtibia 47.3198
rfoot 0.115427 0.495056
rtoes 1.91433
lfemur -8.84607 3.58622 -24.5468
ltibia 11.3414
lfoot 1.70267 -5.81099
ltoes -3.68794
563
root -18.0057 17.8978 12.4109 -33.7142 -86.9221 31.6302
lowerback 9.24237 3.42276 -0.444955
upperback 0.501106 4.42489 -1.11831
thorax -4.59602 2.17439 -1.487
lowerneck -23.9159 -1.08443 -8.64341
upperneck 29.2531 -0.354658 5.89419
head 14.0054 -0.397396 3.76838
rclavicle -2.51649e-014 1.88845e-015
rhumerus -27.5988 -13.7762 -83.381
rradius 31.1396
rwrist 6.34944
rhand -13.7654 11.8105
rfingers 7.12502
rthumb 12.3553 -17.8044
lclavicle -2.51649e-014 1.88845e-015
lhumerus -35.7285 8.1391 81.5701
lradius 27.04
lwrist -9.3327
lhand -16.0554 26.0479
lfingers 7.12502
lthumb 10.1467 55.7832
rfemur -0.626074 -5.04681 19.1585
rtibia 49.2482
rfoot 1.55599 1.48675
rtoes 4.97987
lfemur -8.00569 4.19964 -25.0026
ltibia 10.7656
lfoot 1.53969 -6.44444
ltoes -3.06507
564
root -18.1056 17.9006 12.4257 -37.1783 -86.5477 34.9908
lowerback 9.30393 3.3998 -0.824939
upperback 0.521106 4.34829 -1.18717
thorax -4.63406 2.14239 -1.34071
lowerneck -24.0959 -0.971404 -8.32858
upperneck 29.4158 -0.116421 5.34466
head 14.0932 -0.341432 3.54076
rclavicle -6.07411e-014 1.18277e-014
rhumerus -27.6201 -14.0929 -83.345
rradius 30.74
rwrist 7.10864
rhand -13.3724 12.4739
rfingers 7.12502
rthumb 12.7342 -17.1178
lclavicle -6.07411e-014 1.18277e-014
lhumerus -35.5586 7.23194 81.9558
lradius 27.3561
lwrist -8.87311
lhand -15.7317 26.072
lfingers 7.12502
lthumb 10.459 55.7918
rfemur -1.5663 -5.54719 18.406
rtibia 51.0932
rfoot 2.63201 2.37341
rtoes 7.3249
lfemur -7.23583 4.63343 -25.4575
ltibia 10.1719
lfoot 1.49944 -7.16026
ltoes -2.30564
565
root -18.2075 17.9005 12.4335 -40.8144 -86.1825 38.6873
lowerback 9.18632 3.4274 -1.33288
upperback 0.48783 4.33009 -1.24846
thorax -4.63657 2.14302 -1.11351
lowerneck -24.082 -0.912816 -8.37334
upperneck 29.4277 0.00179236 5.30155
head 14.0849 -0.302332 3.55265
rclavicle -1.8282e-014 6.95746e-015
rhumerus -27.8321 -13.9976 -83.373
rradius 30.7628
rwrist 7.28704
rhand -13.1957 12.5735
rfingers 7.12502
rthumb 12.9045 -17.0075
lclavicle -1.8282e-014 6.95746e-015
lhumerus -35.4756 6.42069 82.3515
lradius 27.8094
lwrist -8.68932
lhand -15.7753 26.1147
lfingers 7.12502
lthumb 10.4169 55.8366
rfemur -2.64947 -6.03531 17.6786
rtibia 52.8617
rfoot 3.05804 2.75708
rtoes 7.35303
lfemur -6.56435 4.80159 -25.8861
ltibia 9.42105
lfoot 1.59821 -7.58827
ltoes -1.59367
566
root -18.3135 17.9008 12.4353 -44.5318 -85.9154 42.5708
lowerback 8.9302 3.5137 -1.93536
upperback 0.39672 4.38704 -1.28653
thorax -4.63098 2.18399 -0.813235
lowerneck -24.109 -0.849149 -8.39551
upperneck 29.5816 0.0920468 5.32514
head 14.1491 -0.268296 3.58852
rclavicle -2.41337e-015 3.97569e-015
rhumerus -28.0792 -13.8536 -83.3564
rradius 30.7308
rwrist 7.74348
rhand -13.142 12.5693
rfingers 7.12502
rthumb 12.9563 -17.0084
lclavicle -2.41337e-015 3.97569e-015
lhumerus -35.4081 5.82076 82.6028
lradius 28.1849
lwrist -8.9357
lhand -15.426 25.8621
lfingers 7.12502
lthumb 10.7538 55.5668
rfemur -3.80307 -6.38663 17.0645
rtibia 54.4847
rfoot 2.92878 2.70099
rtoes 5.84336
lfemur -5.96111 5.08369 -26.2547
ltibia 8.59366
lfoot 1.70523 -7.89384
ltoes -0.568933
